<svg id="Capa_1" enable-background="new 0 0 512 512" height="512" viewBox="0 0 512 512" width="512" xmlns="http://www.w3.org/2000/svg"><g><g><path d="m279.015 456.73-1.62-26.34 74.86-79.56-17.73-17.72-59.67 56.14-8.23-133.54 86.28-90.47-13.82-13.82-74.51 71.06-10.48-170.16h-23.6l-24.92 404.409c-.66 10.66-7.9 19.77-18.14 22.8l-2.05.61c-5.39 1.6-9.93 4.88-13.13 9.16s-5.05 9.58-5.05 15.2h150.18c0-11.25-7.4-21.16-18.18-24.36l-2.05-.61c-10.24-3.029-17.48-12.139-18.14-22.799z" fill="#bc7c63"/><path d="m230.495 52.321h9.24l-11.705 404.409c-.3 10.66-2.988 20.989-9.37 23.41-2.5 1.6-11.336 2.238-13.964 9.16-1.608 4.234-2.34 9.58-2.34 15.2h-35.15c0-5.62 1.85-10.92 5.05-15.2s7.74-7.56 13.13-9.16l2.05-.61c10.24-3.03 17.48-12.14 18.14-22.8z" fill="#ab695d"/><path d="m291.147 280.981c3.628 0 7.109.625 10.348 1.762.766-23.122 19.739-41.634 43.047-41.634s42.281 18.512 43.047 41.634c3.24-1.137 6.72-1.762 10.348-1.762 17.265 0 31.261 13.996 31.261 31.261s-13.996 31.261-31.261 31.261c-3.628 0-7.109-.625-10.348-1.761-.766 23.122-19.739 41.634-43.047 41.634s-42.281-18.512-43.047-41.634c-3.24 1.137-6.72 1.761-10.348 1.761-17.265 0-31.261-13.996-31.261-31.261s13.996-31.261 31.261-31.261z" fill="#9be69d"/><path d="m346.726 365.642c0 6.32 1.88 12.21 5.11 17.12-2.37.41-4.81.62-7.3.62-23.3 0-42.28-18.52-43.04-41.64-3.24 1.14-6.72 1.76-10.35 1.76-17.27 0-31.26-13.99-31.26-31.26 0-17.26 13.99-31.26 31.26-31.26 3.63 0 7.11.63 10.35 1.76.76-23.12 19.74-41.63 43.04-41.63 2.49 0 4.93.21 7.3.62-3.23 4.92-5.11 10.8-5.11 17.12 0 3.62.63 7.11 1.76 10.35-23.12.76-41.63 19.73-41.63 43.04s18.51 42.28 41.63 43.05c-1.13 3.24-1.76 6.72-1.76 10.35z" fill="#6fd7a3"/><path d="m227.366 215.864c-2.775 0-5.437.478-7.915 1.347-.586-17.685-15.097-31.844-32.924-31.844-11.389 0-21.417 5.784-27.333 14.569-5.156-4.831-12.082-7.794-19.707-7.794-15.607 0-28.311 12.396-28.824 27.879-2.169-.761-4.5-1.18-6.929-1.18-11.561 0-20.933 9.372-20.933 20.932 0 11.561 9.372 20.932 20.933 20.932 2.429 0 4.76-.418 6.929-1.179.513 15.483 13.217 27.879 28.824 27.879 7.624 0 14.551-2.963 19.707-7.794 5.916 8.785 15.944 14.569 27.333 14.569 17.827 0 32.338-14.159 32.924-31.844 2.478.869 5.14 1.347 7.915 1.347 13.205 0 23.91-10.705 23.91-23.909-.001-13.205-10.705-23.91-23.91-23.91z" fill="#9be69d"/><path d="m116.681 239.77c0 11.56 9.38 20.94 20.94 20.94 2.43 0 4.76-.42 6.93-1.18.3 9.2 4.91 17.3 11.87 22.37-4.75 3.46-10.6 5.5-16.93 5.5-15.61 0-28.31-12.39-28.83-27.87-2.17.76-4.5 1.18-6.93 1.18-11.56 0-20.93-9.38-20.93-20.94s9.37-20.93 20.93-20.93c2.43 0 4.76.42 6.93 1.18.52-15.48 13.22-27.88 28.83-27.88 6.33 0 12.18 2.04 16.93 5.51-6.96 5.07-11.57 13.17-11.87 22.37-2.17-.76-4.5-1.18-6.93-1.18-11.56 0-20.94 9.37-20.94 20.93z" fill="#6fd7a3"/><path d="m156.03 344.273c4.438 0 8.601 1.169 12.208 3.208.693-13.103 11.535-23.514 24.811-23.514 13.275 0 24.118 10.411 24.811 23.514 3.606-2.039 7.769-3.208 12.208-3.208 13.723 0 24.847 11.124 24.847 24.847s-11.124 24.847-24.847 24.847c-4.438 0-8.601-1.169-12.208-3.208-.693 13.103-11.535 23.514-24.811 23.514-13.275 0-24.118-10.411-24.811-23.514-3.606 2.039-7.769 3.208-12.208 3.208-13.723 0-24.847-11.124-24.847-24.847s11.124-24.847 24.847-24.847z" fill="#9be69d"/><path d="m193.823 393.93c-2.03 3.61-3.2 7.77-3.2 12.21 0 2.84.48 5.56 1.36 8.1-12.79-.53-23.07-10.73-23.75-23.48-3.6 2.04-7.76 3.21-12.2 3.21-13.73 0-24.85-11.13-24.85-24.85s11.12-24.85 24.85-24.85c4.44 0 8.6 1.17 12.2 3.21.68-12.75 10.96-22.95 23.75-23.48-.88 2.54-1.36 5.26-1.36 8.1 0 4.44 1.17 8.6 3.2 12.21-13.1.69-23.51 11.53-23.51 24.81s10.41 24.12 23.51 24.81z" fill="#6fd7a3"/><path d="m167.207 104.9c0 17.519 14.202 31.721 31.721 31.721.259 0 .514-.013.771-.019-.499 2.236-.771 4.557-.771 6.943 0 17.519 14.202 31.721 31.721 31.721 10.303 0 19.455-4.915 25.25-12.526 6.232 15.639 21.501 26.698 39.362 26.698 14.263 0 26.87-7.055 34.548-17.858 4.429 2.35 9.478 3.686 14.841 3.686 17.519 0 31.721-14.202 31.721-31.721 0-2.853-.383-5.615-1.089-8.245 2.873.855 5.913 1.321 9.064 1.321 17.519 0 31.721-14.202 31.721-31.721s-14.202-31.721-31.721-31.721c-3.087 0-6.067.449-8.888 1.271.592-2.422.913-4.951.913-7.555 0-17.519-14.202-31.721-31.721-31.721-5.974 0-11.561 1.654-16.332 4.526-2.762-18.228-18.498-32.198-37.497-32.198-18.905 0-34.574 13.833-37.451 31.929-4.668-2.702-10.083-4.256-15.864-4.256-17.519 0-31.721 14.202-31.721 31.721 0 2.488.296 4.906.837 7.229-2.464-.614-5.04-.945-7.694-.945-17.519-.002-31.721 14.201-31.721 31.72z" fill="#9be69d"/><path d="m290.817 7.5c-18.9 0-34.57 13.83-37.45 31.93-4.66-2.7-10.08-4.26-15.86-4.26-17.52 0-31.72 14.2-31.72 31.72 0 2.49.29 4.91.83 7.23-2.46-.61-5.04-.94-7.69-.94-17.52 0-31.72 14.2-31.72 31.72s14.2 31.72 31.72 31.72c.26 0 .51-.01.77-.02-.5 2.24-.77 4.56-.77 6.94 0 17.52 14.2 31.73 31.72 31.73 9.27 0 17.61-3.98 23.4-10.32-5.15-5.65-8.3-13.16-8.3-21.41 0-2.38.27-4.7.77-6.94-.25.01-.51.02-.77.02-17.52 0-31.72-14.2-31.72-31.72s14.2-31.72 31.72-31.72c2.66 0 5.23.33 7.7.94-.55-2.32-.84-4.74-.84-7.23 0-13.88 8.92-25.68 21.34-29.98 1.64-14.44 12.92-25.96 27.26-27.97-3.3-.94-6.79-1.44-10.39-1.44z" fill="#6fd7a3"/></g><path d="m397.938 273.481c-1.309 0-2.611.065-3.905.196-4.808-23.063-25.077-40.069-49.49-40.069s-44.683 17.006-49.49 40.069c-1.294-.13-2.597-.196-3.905-.196-5.592 0-10.905 1.2-15.711 3.34l-1.128-18.305 16.92-17.74c2.858-2.998 2.746-7.745-.251-10.604-2.999-2.859-7.746-2.748-10.604.251l-19.18 20.11c-1.44 1.511-2.187 3.554-2.058 5.638l1.95 31.637c-5.434 6.673-8.699 15.177-8.699 24.433 0 10.967 4.586 20.877 11.932 27.935l3.051 49.533c.179 2.903 2.02 5.441 4.723 6.512.896.355 1.832.527 2.762.527 1.877 0 3.724-.705 5.141-2.038l24.662-23.203c2.679 3.43 5.789 6.501 9.256 9.13l-41.979 44.611c-1.419 1.507-2.151 3.534-2.023 5.6l1.62 26.343c.852 13.755 10.294 25.622 23.487 29.526l2.055.611c5.012 1.488 9.02 5.103 11.146 9.67h-131.875c.52-1.123 1.16-2.197 1.917-3.209 2.334-3.122 5.536-5.356 9.262-6.462l2.041-.606c13.202-3.907 22.645-15.774 23.497-29.531l2.762-44.809c3.281-3.252 5.883-7.195 7.535-11.617 2.199.467 4.449.705 6.712.705 17.833 0 32.34-14.512 32.34-32.35s-14.508-32.35-32.34-32.35c-2.263 0-4.514.238-6.712.705-.697-1.867-1.58-3.638-2.593-5.32l3.464-56.171c.607-1.567 1.12-3.183 1.532-4.841.534.027 1.068.041 1.605.041 17.319 0 31.41-14.09 31.41-31.409 0-16.975-13.537-30.838-30.382-31.384l1.577-25.637c.227.004.451.017.679.017 8.574 0 16.679-2.721 23.34-7.678.052.078.111.15.164.228l2.934 47.622c.179 2.912 2.03 5.455 4.746 6.521.889.349 1.817.518 2.738.518 1.894 0 3.756-.717 5.177-2.072l33.097-31.558c5.001-.775 9.826-2.312 14.323-4.517l-12.858 13.481c-2.858 2.998-2.746 7.745.251 10.604 1.453 1.385 3.315 2.073 5.176 2.073 1.979 0 3.954-.778 5.429-2.324l31.422-32.945c20.538-1.005 36.976-17.886 37.276-38.604.161.002.322.003.483.003 21.626 0 39.221-17.594 39.221-39.22s-17.595-39.22-39.221-39.22c-.166 0-.332.001-.498.003-.203-6.62-2.077-13.087-5.449-18.778-2.112-3.563-6.714-4.739-10.276-2.627-3.563 2.112-4.739 6.712-2.628 10.276 2.206 3.722 3.372 7.987 3.372 12.336 0 1.94-.234 3.887-.697 5.784-.634 2.602.167 5.343 2.102 7.195 1.935 1.851 4.707 2.53 7.28 1.783 2.217-.645 4.503-.972 6.795-.972 13.355 0 24.221 10.865 24.221 24.22s-10.865 24.22-24.221 24.22c-2.357 0-4.687-.339-6.923-1.006-2.604-.78-5.43-.085-7.379 1.812-1.948 1.897-2.717 4.702-2.009 7.328.552 2.042.831 4.157.831 6.286 0 13.36-10.865 24.23-24.22 24.23-3.993 0-7.804-.947-11.326-2.815-3.325-1.765-7.445-.789-9.627 2.279-6.548 9.208-17.179 14.706-28.438 14.706-14.36 0-27.074-8.626-32.393-21.975-1-2.511-3.274-4.29-5.953-4.656-2.678-.367-5.346.739-6.983 2.89-4.628 6.083-11.656 9.571-19.281 9.571-13.355 0-24.22-10.87-24.22-24.23 0-1.768.198-3.553.59-5.306.507-2.27-.098-4.646-1.586-6.433s-3.745-2.783-6.076-2.693c-.144.005-.283.012-.428.012-13.355 0-24.22-10.865-24.22-24.22s10.865-24.22 24.22-24.22c1.981 0 3.96.242 5.884.719 2.535.629 5.211-.105 7.071-1.938 1.859-1.833 2.632-4.5 2.04-7.042-.421-1.81-.635-3.67-.635-5.53 0-13.355 10.865-24.22 24.22-24.22 4.239 0 8.426 1.125 12.106 3.253 2.139 1.237 4.749 1.341 6.979.279s3.794-3.154 4.183-5.593c2.361-14.84 14.996-25.61 30.043-25.61 14.922 0 27.855 11.102 30.085 25.823.374 2.474 1.958 4.598 4.222 5.663 2.261 1.064 4.907.932 7.055-.356 3.395-2.039 7.264-3.221 11.188-3.419 4.137-.209 7.32-3.732 7.111-7.869-.208-4.136-3.701-7.324-7.869-7.111-3.153.159-6.282.708-9.306 1.623-6.585-17.245-23.452-29.354-42.486-29.354-19.276 0-35.901 11.842-42.46 29.207-3.516-1.014-7.17-1.537-10.85-1.537-21.223 0-38.563 16.943-39.202 38.015-21.341.333-38.598 17.796-38.598 39.215 0 19.062 13.67 34.991 31.721 38.501v.139c0 16.122 9.776 29.999 23.708 36.024l-.585 9.508c-7.26-6.958-17.124-11.204-28.027-11.204-10.825 0-21.051 4.316-28.562 11.821-5.551-3.288-11.904-5.047-18.477-5.047-16.798 0-30.867 11.205-35.064 26.708-.229-.005-.459-.008-.689-.008-15.678 0-28.432 12.755-28.432 28.433s12.754 28.432 28.432 28.432c.23 0 .46-.003.689-.008 4.198 15.502 18.266 26.708 35.064 26.708 6.573 0 12.925-1.759 18.477-5.046 7.512 7.505 17.737 11.821 28.562 11.821 7.898 0 15.25-2.232 21.465-6.104l-1.471 23.847c-4.11-1.885-8.667-2.953-13.471-2.953-13.829 0-25.707 8.685-30.308 21.006-2.2-.467-4.451-.706-6.712-.706-16.602 0-30.75 12.936-32.21 29.449-.365 4.126 2.684 7.767 6.81 8.131 4.119.371 7.767-2.684 8.131-6.81.782-8.843 8.367-15.771 17.269-15.771 3.024 0 5.891.753 8.521 2.24 2.26 1.277 5.021 1.294 7.298.045 2.276-1.249 3.745-3.587 3.881-6.18.484-9.199 8.092-16.404 17.32-16.404s16.836 7.206 17.32 16.404c.137 2.595 1.607 4.934 3.885 6.183 2.279 1.249 5.041 1.229 7.302-.052 2.58-1.462 5.524-2.235 8.512-2.235 9.562 0 17.34 7.783 17.34 17.35s-7.779 17.35-17.34 17.35c-2.988 0-5.931-.773-8.512-2.236-2.261-1.281-5.022-1.301-7.302-.052-2.278 1.249-3.749 3.588-3.885 6.183-.484 9.199-8.092 16.405-17.32 16.405s-16.835-7.206-17.32-16.405c-.137-2.593-1.605-4.931-3.881-6.18-2.276-1.25-5.038-1.232-7.298.045-2.631 1.486-5.498 2.24-8.521 2.24-1.097 0-2.188-.103-3.245-.306-4.066-.779-7.999 1.883-8.78 5.95-.782 4.068 1.882 7.999 5.95 8.78 4.184.804 8.597.76 12.787-.131 4.601 12.322 16.479 21.006 30.308 21.006 2.479 0 4.893-.29 7.216-.819l-2.177 35.316c-.463 7.488-5.6 13.947-12.792 16.075l-2.046.609c-6.84 2.031-12.72 6.131-17.002 11.858-4.28 5.726-6.543 12.535-6.543 19.691 0 4.142 3.358 7.5 7.5 7.5h150.18c4.143 0 7.5-3.358 7.5-7.5 0-14.461-9.683-27.435-23.542-31.549l-2.061-.613c-7.182-2.125-12.318-8.584-12.781-16.069l-1.422-23.102 42.508-45.174c5.297 1.864 11.001 2.882 16.955 2.882 24.413 0 44.683-17.006 49.49-40.069 1.294.13 2.597.196 3.905.196 21.373 0 38.761-17.388 38.761-38.761s-17.388-38.761-38.761-38.761zm-127.841-83.324c3.792 2.212 7.882 3.926 12.187 5.074l-11.216 10.694zm-83.57 96.522c-8.472 0-16.364-4.208-21.112-11.258-1.228-1.823-3.193-3.016-5.378-3.263-.281-.032-.563-.047-.843-.047-1.894 0-3.73.718-5.127 2.027-3.969 3.719-9.146 5.767-14.579 5.767-11.577 0-20.945-9.061-21.329-20.627-.079-2.387-1.29-4.593-3.261-5.941-1.972-1.348-4.466-1.677-6.719-.887-1.429.501-2.925.756-4.445.756-7.407 0-13.432-6.025-13.432-13.432s6.025-13.433 13.432-13.433c1.52 0 3.015.254 4.445.756 2.254.791 4.748.461 6.719-.887 1.971-1.349 3.182-3.555 3.261-5.941.383-11.567 9.752-20.627 21.329-20.627 5.432 0 10.609 2.048 14.579 5.767 1.604 1.503 3.788 2.226 5.971 1.98 2.184-.247 4.15-1.44 5.378-3.263 4.748-7.049 12.64-11.258 21.112-11.258 13.802 0 24.971 10.802 25.428 24.591.079 2.387 1.29 4.593 3.26 5.941s4.464 1.678 6.718.888c1.749-.613 3.577-.924 5.433-.924 9.048 0 16.41 7.361 16.41 16.41 0 9.048-7.361 16.409-16.41 16.409-1.857 0-3.685-.311-5.432-.924-2.252-.791-4.749-.462-6.719.887-1.971 1.348-3.182 3.555-3.261 5.941-.457 13.79-11.626 24.592-25.428 24.592zm94.83 86.155-1.448-23.498c3.559 1.08 7.33 1.667 11.237 1.667 1.309 0 2.611-.065 3.905-.196.515 2.472 1.219 4.87 2.076 7.19zm116.581-36.831c-2.688 0-5.334-.45-7.866-1.338-2.253-.792-4.747-.461-6.718.888s-3.182 3.555-3.261 5.941c-.639 19.28-16.254 34.382-35.551 34.382s-34.912-15.103-35.551-34.382c-.079-2.387-1.29-4.593-3.261-5.941-1.264-.865-2.743-1.311-4.235-1.311-.836 0-1.675.14-2.483.423-2.53.888-5.177 1.338-7.865 1.338-13.102 0-23.761-10.659-23.761-23.761s10.659-23.761 23.761-23.761c2.688 0 5.334.45 7.865 1.338 2.253.79 4.747.462 6.719-.887 1.971-1.348 3.182-3.555 3.261-5.941.639-19.28 16.254-34.383 35.551-34.383s34.912 15.103 35.551 34.383c.079 2.387 1.29 4.593 3.261 5.941s4.465 1.678 6.718.888c2.533-.888 5.18-1.339 7.866-1.339 13.102 0 23.761 10.659 23.761 23.761s-10.661 23.761-23.762 23.761z"/></g></svg>