<svg id="flat" viewBox="0 0 960 960" xmlns="http://www.w3.org/2000/svg"><path d="m540.99 774.25c-.59-12.9-1.73-25.54-3.05-38.11-46.299-43.568-93.482-36.858-141.23 2.01-1.77 39.59-3.11 81.99-3.15 112.11 44.89 9.26 150.56-1.63 151.74-3.04 1.21-1.43-2.89-41.71-4.31-72.97z" fill="#815522"/><path d="m642.245 579.016c-8.352-8.359-16.724-16.742-24.573-25.566 43.355-1.418 86.362-2.587 122.5-2.1-48.332-56.251-93.741-108.264-140.437-165.971-6.164-7.618-12.981-17.599-20.094-28.419 33.529-1.253 69.257-2.133 101.834-1.767-50.16-76.807-142.178-168.615-220.006-249.147-75.638 92.149-125.708 176.748-182.942 263.476 29.803 1.4 58.612.582 87.267-1.009-46.666 66.858-95.344 132.311-145.964 196.228 91.407-9.318 108.924-9.719 126.024-9.993-56.849 62.006-114.277 123.471-173.035 183.667 93.056 0 143.76-.308 166.323-.356 50.95-.109 101.988.642 152.927-.559 98.376-2.321 196.815-8.897 295.115-13.423-48.313-48.353-96.625-96.706-144.938-145.059z" fill="#689d3c"/></svg>