<svg id="Capa_1" enable-background="new 0 0 512 512" height="512" viewBox="0 0 512 512" width="512" xmlns="http://www.w3.org/2000/svg"><g><g><path d="m256 277.183c-.52 0-1.032-.03-1.545-.056v229.207l4.351 5.666h6.157c4.071 0 7.371-3.3 7.371-7.371v-232.146c-4.736 2.971-10.33 4.7-16.334 4.7z" fill="#e39b74"/><g><path d="m257.03 504.629v-227.483c-.344.012-.684.037-1.03.037-6.004 0-11.598-1.728-16.334-4.7v232.145c0 4.071 3.3 7.371 7.371 7.371h17.364c-4.07.001-7.371-3.299-7.371-7.37z" fill="#dd8858"/></g><g><path d="m238.635 382.886c-.89 0-1.795-.155-2.678-.481-27.07-10.008-41.378-36.456-41.378-76.485 0-7.881-.992-17.06-2.949-27.284-.802-4.191 1.945-8.239 6.136-9.041 4.192-.803 8.239 1.945 9.041 6.136 2.14 11.179 3.225 21.336 3.225 30.189 0 33.46 10.525 54.317 31.284 61.991 4.003 1.48 6.048 5.924 4.568 9.926-1.154 3.118-4.108 5.049-7.249 5.049z" fill="#dd8858"/></g><g><path d="m273.365 382.886c-3.142 0-6.095-1.93-7.248-5.049-1.48-4.003.565-8.446 4.568-9.926 20.759-7.674 31.284-28.531 31.284-61.991 0-8.852 1.085-19.009 3.224-30.189.802-4.192 4.853-6.941 9.041-6.136 4.191.802 6.939 4.85 6.136 9.041-1.957 10.225-2.949 19.404-2.949 27.284 0 40.029-14.308 66.477-41.378 76.485-.883.326-1.788.481-2.678.481z" fill="#eaae8e"/></g><path d="m468.314 181.576c-3.544-3.178-4.147-8.404-1.449-12.327 15.097-21.953-.261-53.607-27.16-54.943-4.359-.216-7.962-3.565-8.441-7.904-1.675-15.199-13.101-27.617-27.999-30.638-4.626-.938-7.739-5.137-7.374-9.843 1.987-25.604-24.93-44.547-48.262-35.109-4.478 1.811-9.61-.152-11.609-4.549-5.55-12.205-17.844-20.692-32.126-20.692-5.102 0-9.949 1.086-14.327 3.037-3.156 1.406-6.83.94-9.656-1.049-1.336-.94-2.731-1.8-4.176-2.58h-19.735l-35.541 13.392-31.592 17.857-17.342 30.126-65.416 51.087s-17.513 87.05-17.513 89.111c0 2.06 23.437 37.344 23.437 37.344l44.04 28.588 16.655 22.149 4.128 3.244c8.786-2.068 16.747-7.457 21.804-15.508 2.127-3.386 6.233-5.07 10.083-3.99 6.937 1.946 14.006 1.611 20.414-.525 3.002-1.001 6.265-.354 8.83 1.5 5.066 3.66 11.287 5.819 18.015 5.819s12.949-2.159 18.014-5.819c2.565-1.853 5.828-2.5 8.83-1.5 6.409 2.136 13.478 2.471 20.414.525 3.85-1.08 7.956.604 10.083 3.99 9.005 14.338 27.222 20.238 42.907 13.961 3.513-1.406 7.467-.257 9.935 2.611 4.515 5.246 11.201 8.569 18.666 8.569 15.026 0 25.955-13.117 24.527-27.083-.386-3.77 1.597-7.446 5.057-8.993 9.265-4.143 16.414-12.163 19.385-22 1.197-3.963 4.968-6.572 9.102-6.346 19.658 1.074 37.126-14.592 37.126-35.248-.002-10.435-4.534-19.806-11.734-26.264z" fill="#faa7b0"/><g><path d="m171.845 280.426c.386-3.77-1.597-7.446-5.057-8.993-9.266-4.143-16.414-12.163-19.386-22-1.197-3.963-4.968-6.572-9.101-6.346-19.658 1.074-37.126-14.592-37.126-35.248 0-10.434 4.531-19.805 11.732-26.263 3.544-3.178 4.147-8.404 1.449-12.327-15.097-21.953.261-53.607 27.16-54.943 4.359-.216 7.962-3.565 8.44-7.904 1.675-15.199 13.101-27.617 27.999-30.638 4.626-.938 7.739-5.137 7.373-9.843-1.987-25.604 24.93-44.547 48.262-35.109 4.478 1.811 9.61-.152 11.609-4.549 5.484-12.06 17.557-20.475 31.622-20.674-6.124-3.549-13.232-5.589-20.821-5.589-8.902 0-17.146 2.799-23.912 7.559-2.826 1.988-6.499 2.455-9.656 1.049-4.378-1.95-9.224-3.037-14.326-3.037-14.282 0-26.576 8.487-32.126 20.692-1.999 4.397-7.131 6.36-11.609 4.549-23.332-9.438-50.249 9.506-48.262 35.109.365 4.706-2.747 8.905-7.373 9.843-14.899 3.021-26.324 15.439-27.999 30.638-.478 4.339-4.081 7.687-8.44 7.904-26.899 1.336-42.257 32.99-27.16 54.943 2.697 3.923 2.095 9.149-1.449 12.327-7.2 6.458-11.732 15.829-11.732 26.263 0 20.656 17.469 36.323 37.126 35.248 4.133-.226 7.905 2.383 9.102 6.346 2.971 9.837 10.12 17.857 19.385 22 3.46 1.547 5.443 5.222 5.057 8.993-1.428 13.966 9.501 27.083 24.527 27.083 7.465 0 14.151-3.323 18.666-8.569 2.468-2.868 6.422-4.017 9.935-2.611 6.878 2.753 14.242 3.163 21.103 1.548-3.728-4.859-5.665-11.064-5.012-17.451z" fill="#f78b98"/></g><g><path d="m332.946 187.287c-1.016 0-2.048-.201-3.04-.627-3.922-1.681-5.739-6.223-4.058-10.145l3.837-8.953c1.681-3.922 6.223-5.739 10.145-4.058s5.739 6.223 4.058 10.145l-3.837 8.953c-1.256 2.93-4.108 4.685-7.105 4.685z" fill="#f27182"/></g><g><path d="m254.078 187.287c-1.016 0-2.048-.201-3.04-.627-3.922-1.681-5.739-6.223-4.058-10.145l3.837-8.953c1.681-3.922 6.224-5.739 10.145-4.058 3.922 1.681 5.739 6.223 4.058 10.145l-3.837 8.953c-1.255 2.93-4.107 4.685-7.105 4.685z" fill="#f27182"/></g><g><path d="m175.21 187.287c-1.016 0-2.048-.201-3.04-.627-3.922-1.681-5.739-6.223-4.058-10.145l3.837-8.953c1.681-3.922 6.224-5.739 10.145-4.058 3.922 1.681 5.739 6.223 4.058 10.145l-3.837 8.953c-1.255 2.93-4.107 4.685-7.105 4.685z" fill="#f27182"/></g></g><g><path d="m292.412 132.192c-.985 0-1.987-.195-2.95-.608-3.808-1.632-5.571-6.041-3.939-9.848l3.725-8.69c1.632-3.807 6.041-5.572 9.848-3.939 3.808 1.632 5.571 6.041 3.939 9.848l-3.725 8.69c-1.219 2.844-3.988 4.547-6.898 4.547z" fill="#f27182"/></g><g><path d="m215.855 132.192c-.985 0-1.987-.195-2.95-.608-3.808-1.632-5.571-6.041-3.939-9.848l3.725-8.69c1.631-3.807 6.041-5.572 9.848-3.939 3.808 1.632 5.571 6.041 3.939 9.848l-3.725 8.69c-1.219 2.844-3.987 4.547-6.898 4.547z" fill="#f27182"/></g><g><path d="m205.141 355.433c-27.24 0-41.078-16.63-41.68-17.37-2.611-3.215-2.123-7.938 1.092-10.55 3.202-2.602 7.897-2.127 10.515 1.048.529.625 11.358 13.024 33.121 11.785 4.143-.23 7.679 2.926 7.915 7.061.235 4.136-2.927 7.679-7.062 7.915-1.329.075-2.631.111-3.901.111z" fill="#e39b74"/></g><g><path d="m306.859 355.433c-1.272 0-2.57-.036-3.901-.112-4.135-.235-7.297-3.779-7.062-7.915.236-4.135 3.779-7.291 7.915-7.061 21.854 1.241 32.678-11.258 33.126-11.792 2.614-3.215 7.315-3.678 10.53-1.066s3.683 7.36 1.071 10.575c-.601.741-14.442 17.371-41.679 17.371z" fill="#e39b74"/></g></g></svg>