<svg id="Layer_1" enable-background="new 0 0 512 512" viewBox="0 0 512 512" xmlns="http://www.w3.org/2000/svg"><g><g><path d="m315.5 421.4c-12.2 3-34.9-70.6-37.8-79.1-3.7-10.9-8.4-26.8-15-36.1-.4-.5-4.8-3.1-6.7-3.5-31-6.4-141.9-33.6-168.1-41.1 6.2-31.7 25.8-59.5 48.1-82.2 11.6-11.9 54.8-49.7 76.5-57.4 7.8 7.1 17.7 17 25.7 24.1 1.3-5.6 7.3-31.8 7.8-33.6 11.8-3.3 23.5-3.2 35.6-1.6 56.2 7.3 115 31.3 142.5 80.8-46.4 32.7-83.8 66.9-130.2 99.6-2.8 1.9-5.7 4.1-6.9 7.2-1.4 3.7-.1 7.7 1.2 11.4 13 36.1 27.1 69.7 52.2 98.7-7.2 6.1-15.8 10.5-24.9 12.8z" fill="#f6c815"/><path d="m314.6 425.5c-8.4 0-18.9-15.1-39.5-78.1-.6-1.7-1-3-1.2-3.8-.5-1.6-1.1-3.3-1.7-5.1-3.3-9.9-7.3-22.1-12.5-29.6-1-.7-3.6-2.1-4.5-2.3-30.1-6.2-141.9-33.5-168.4-41.2-2-.6-3.2-2.6-2.8-4.6 5.5-28.2 22-56.5 49.1-84.2 12.7-12.9 55.9-50.5 78.1-58.4 1.4-.5 2.9-.2 4 .8 3.7 3.3 7.9 7.3 11.9 11.2 2.9 2.8 5.9 5.6 8.8 8.3 2.2-9.6 5.9-25.6 6.4-27.2.4-1.3 1.4-2.4 2.8-2.7 11.1-3.1 22.5-3.6 37.2-1.7 30.8 4 59.7 12.6 83.4 25 28 14.6 48.9 34.1 62.2 57.9 1 1.8.5 4-1.2 5.2-23.1 16.3-44.3 33.2-64.9 49.6-20.6 16.5-42 33.5-65.3 49.9-2.5 1.8-4.7 3.4-5.4 5.4-.9 2.4.1 5.6 1.2 8.6 11.9 33 25.7 67.7 51.4 97.5.7.8 1 1.9 1 2.9-.1 1.1-.6 2.1-1.4 2.7-7.7 6.5-16.9 11.2-26.6 13.6-.9.2-1.5.3-2.1.3zm-.1-8s0 0 0 0zm-221.9-158.8c31.6 8.8 135.4 34.1 164.2 40 2.2.5 7.9 3.3 9.1 5.1 6 8.4 10.4 21.6 13.9 32.1.6 1.8 1.1 3.4 1.7 5 .3.8.7 2.1 1.3 3.9 2.8 8.5 8.6 26.3 15.2 42.6 10.8 26.6 15.8 29.6 16.8 30 7.2-1.8 14-5 20-9.4-24.9-30.1-38.4-64.3-50.2-96.8-1.5-4.3-3-9.3-1.2-14.2 1.7-4.4 5.5-7.1 8.3-9.1 23.1-16.3 44.3-33.2 64.9-49.6 19.8-15.8 40.2-32.1 62.3-47.8-23.8-39.9-73.8-67.4-137.8-75.7-12.5-1.6-22.5-1.4-31.8.9-1.5 6.5-5.8 25.1-7.2 31.3-.3 1.4-1.3 2.5-2.7 2.9-1.3.4-2.8.1-3.9-.8-4.3-3.9-9.3-8.6-14-13.1-3.5-3.3-6.8-6.5-9.9-9.4-21.8 9.2-62.4 44.9-72.8 55.6-24.9 25.3-40.4 51.1-46.2 76.5z"/></g></g></svg>