<svg id="Capa_1" enable-background="new 0 0 512 512" height="512" viewBox="0 0 512 512" width="512" xmlns="http://www.w3.org/2000/svg"><g><g><g><g><path d="m362 108.57c0 20.42-16.55 36.98-36.98 36.98h-33.71c-47.576-9.776-71.15-45.62-71.15-81.5 0-21.32 17.782-46.089 39.72-56.39 16.84 1.3 31.3 11.08 39.14 25.07 1.82 3.24 4.91 5.58 8.57 6.2 17.25 2.91 31.02 16.05 34.85 32.97.64 2.84 2.36 5.3 4.69 7.04 4.51 3.37 8.23 7.74 10.82 12.79s4.05 10.77 4.05 16.84z" fill="#fad989"/><path d="m291.313 145.547h-104.336c-10.206 0-19.45-4.141-26.143-10.834s-10.834-15.938-10.834-26.143c0-12.135 5.847-22.891 14.868-29.63 2.333-1.743 4.051-4.194 4.693-7.035 3.826-16.923 17.597-30.073 34.852-32.975 3.663-.616 6.753-2.959 8.569-6.199 8.439-15.052 24.53-25.231 43.018-25.231 1.307 0 2.613.049 3.895.148-12.35 15.468-19.733 35.079-19.733 56.402 0 35.88 20.879 66.866 51.151 81.497z" fill="#f9d171"/></g></g><path d="m281 455.573v-221.073l-25 30-25-30v221.073c0 14.354-7.691 27.608-20.154 34.73l-1.96 1.12c-6.232 3.561-3.705 13.078 3.473 13.078h87.282c7.178 0 9.705-9.516 3.473-13.078l-1.96-1.12c-12.463-7.122-20.154-20.376-20.154-34.73z" fill="#b8866b"/><g><path d="m472.72 180.54c0 16.38-13.27 29.65-29.65 29.65h-27.03c-38.216-12.742-51.02-36.58-51.02-65.35 0-17.1 6.563-35.844 25.82-45.22 13.51 1.05 25.09 8.89 31.38 20.11 1.46 2.59 3.94 4.47 6.87 4.97 13.84 2.33 24.88 12.87 27.95 26.44.51 2.28 1.89 4.25 3.76 5.64 3.62 2.7 6.6 6.22 8.68 10.26 2.07 4.05 3.24 8.64 3.24 13.5z" fill="#fad989"/><path d="m416.041 210.194h-83.666c-8.184 0-15.597-3.321-20.963-8.688-5.367-5.367-8.688-12.78-8.688-20.963 0-9.731 4.688-18.356 11.923-23.76 1.871-1.398 3.249-3.363 3.764-5.641 3.068-13.571 14.11-24.115 27.947-26.442 2.937-.494 5.415-2.373 6.871-4.971 6.767-12.07 19.67-20.232 34.495-20.232 1.048 0 2.095.04 3.123.119-9.903 12.404-15.824 28.129-15.824 45.228 0 28.77 16.743 53.618 41.018 65.35z" fill="#f9d171"/></g><g><path d="m493.36 268.49c0 17.34-14.05 31.39-31.39 31.39h-28.62c-37.35-12.231-53.43-38.73-53.43-69.19 0-18.11 7.804-35.67 26.75-47.89 14.3 1.12 26.57 9.42 33.22 21.29 1.54 2.75 4.17 4.74 7.28 5.27 14.65 2.47 26.34 13.63 29.59 27.99.54 2.42 2 4.5 3.98 5.98 3.83 2.86 6.98 6.57 9.18 10.86s3.44 9.15 3.44 14.3z" fill="#f9d171"/><path d="m433.347 299.882h-88.587c-8.665 0-16.514-3.516-22.196-9.199-5.683-5.682-9.199-13.531-9.199-22.196 0-10.303 4.964-19.436 12.624-25.158 1.981-1.48 3.44-3.561 3.985-5.973 3.249-14.369 14.94-25.533 29.591-27.997 3.11-.523 5.733-2.512 7.275-5.263 7.165-12.78 20.827-21.423 36.524-21.423 1.109 0 2.219.042 3.307.126-10.486 13.134-16.755 29.784-16.755 47.888 0 30.464 17.729 56.773 43.431 69.195z" fill="#f6ca56"/></g><g><path d="m504.5 361.86c0 18.3-14.84 33.14-33.14 33.14h-30.21c-37.786-13.614-55.84-40.88-55.84-73.04 0-19.11 8.746-38.24 27.67-50.54 15.1 1.17 28.05 9.93 35.08 22.47 1.62 2.9 4.39 5 7.68 5.56 15.46 2.6 27.8 14.38 31.23 29.55.57 2.55 2.11 4.74 4.21 6.31 4.04 3.02 7.37 6.94 9.69 11.46 2.32 4.53 3.63 9.65 3.63 15.09z" fill="#fad989"/><path d="m441.148 395h-93.508c-9.147 0-17.431-3.711-23.43-9.71-5.998-5.998-9.71-14.283-9.71-23.43 0-10.875 5.24-20.515 13.325-26.555 2.091-1.562 3.631-3.759 4.206-6.305 3.429-15.167 15.771-26.952 31.235-29.553 3.283-.552 6.052-2.652 7.68-5.556 7.563-13.49 21.984-22.613 38.553-22.613 1.171 0 2.342.044 3.491.133-11.068 13.863-17.685 31.438-17.685 50.549 0 32.157 18.713 59.928 45.843 73.04z" fill="#f9d171"/></g><g><path d="m209.276 180.54c0 16.38-13.27 29.65-29.65 29.65h-27.03c-38.216-12.742-51.02-36.58-51.02-65.35 0-17.1 6.563-35.844 25.82-45.22 13.51 1.05 25.09 8.89 31.38 20.11 1.46 2.59 3.94 4.47 6.87 4.97 13.84 2.33 24.88 12.87 27.95 26.44.51 2.28 1.89 4.25 3.76 5.64 3.62 2.7 6.6 6.22 8.68 10.26 2.07 4.05 3.24 8.64 3.24 13.5z" fill="#fad989"/><path d="m152.597 210.194h-83.666c-8.184 0-15.597-3.321-20.963-8.688-5.367-5.367-8.688-12.78-8.688-20.963 0-9.731 4.688-18.356 11.923-23.76 1.871-1.398 3.249-3.363 3.764-5.641 3.068-13.571 14.11-24.115 27.947-26.442 2.937-.494 5.415-2.373 6.871-4.971 6.767-12.07 19.67-20.232 34.495-20.232 1.048 0 2.095.04 3.123.119-9.903 12.404-15.824 28.129-15.824 45.228 0 28.77 16.744 53.618 41.018 65.35z" fill="#f9d171"/></g><g><path d="m198.636 268.49c0 17.34-14.05 31.39-31.39 31.39h-28.62c-37.35-12.231-53.43-38.73-53.43-69.19 0-18.11 7.804-35.67 26.75-47.89 14.3 1.12 26.57 9.42 33.22 21.29 1.54 2.75 4.17 4.74 7.28 5.27 14.65 2.47 26.34 13.63 29.59 27.99.54 2.42 2 4.5 3.98 5.98 3.83 2.86 6.98 6.57 9.18 10.86s3.44 9.15 3.44 14.3z" fill="#f9d171"/><path d="m138.622 299.882h-88.587c-8.665 0-16.514-3.516-22.196-9.199-5.683-5.682-9.199-13.531-9.199-22.196 0-10.303 4.964-19.436 12.624-25.158 1.981-1.48 3.44-3.561 3.985-5.973 3.249-14.369 14.941-25.533 29.591-27.997 3.11-.523 5.733-2.512 7.275-5.263 7.165-12.78 20.827-21.423 36.524-21.423 1.109 0 2.219.042 3.307.126-10.486 13.134-16.755 29.784-16.755 47.888.001 30.464 17.729 56.773 43.431 69.195z" fill="#f6ca56"/></g><g><path d="m197.5 361.86c0 18.3-14.84 33.14-33.14 33.14h-30.21c-37.786-13.614-55.84-40.88-55.84-73.04 0-19.11 8.746-38.24 27.67-50.54 15.1 1.17 28.05 9.93 35.08 22.47 1.62 2.9 4.39 5 7.68 5.56 15.46 2.6 27.8 14.38 31.23 29.55.57 2.55 2.11 4.74 4.21 6.31 4.04 3.02 7.37 6.94 9.69 11.46 2.32 4.53 3.63 9.65 3.63 15.09z" fill="#fad989"/><path d="m134.148 395h-93.508c-9.147 0-17.431-3.711-23.43-9.71-5.998-5.998-9.71-14.283-9.71-23.43 0-10.875 5.24-20.515 13.325-26.555 2.091-1.562 3.631-3.759 4.206-6.305 3.429-15.167 15.771-26.952 31.235-29.553 3.283-.552 6.052-2.652 7.68-5.556 7.563-13.49 21.984-22.613 38.553-22.613 1.171 0 2.342.044 3.491.133-11.068 13.863-17.685 31.438-17.685 50.549 0 32.157 18.713 59.928 45.843 73.04z" fill="#f9d171"/></g></g><g><g><path d="m193.551 108.996c-4.142 0-7.5-3.357-7.5-7.5v-12c0-4.143 3.358-7.5 7.5-7.5s7.5 3.357 7.5 7.5v12c0 4.143-3.358 7.5-7.5 7.5z"/><path d="m318.449 108.996c-4.142 0-7.5-3.357-7.5-7.5v-12c0-4.143 3.358-7.5 7.5-7.5s7.5 3.357 7.5 7.5v12c0 4.143-3.358 7.5-7.5 7.5z"/><path d="m256 116.14c-8.478 0-16.54-3.672-22.119-10.073-2.721-3.123-2.396-7.86.727-10.582 3.123-2.721 7.86-2.396 10.582.727 2.729 3.133 6.669 4.929 10.81 4.929s8.081-1.796 10.81-4.929c2.721-3.123 7.458-3.447 10.582-.727 3.123 2.722 3.448 7.459.727 10.582-5.579 6.401-13.641 10.073-22.119 10.073z"/></g><path d="m495.667 329.299c-.73-.545-1.221-1.239-1.382-1.953-2.188-9.677-7.306-18.106-14.377-24.367 12.438-6.495 20.952-19.513 20.952-34.489 0-6.151-1.475-12.28-4.266-17.722-2.696-5.257-6.625-9.907-11.363-13.445-.614-.459-1.022-1.029-1.156-1.629-2.471-10.919-8.848-20.178-17.587-26.324 8.444-6.874 13.733-17.337 13.733-28.831 0-5.865-1.405-11.714-4.072-16.934-2.589-5.028-6.346-9.468-10.872-12.844-.484-.36-.818-.819-.921-1.278-3.779-16.705-17.133-29.337-34.003-32.178-.615-.104-1.212-.575-1.59-1.245-8.326-14.84-24.052-24.06-41.043-24.06-7.055 0-13.82 1.552-19.919 4.392-.789-2.771-1.839-5.473-3.178-8.084-3.079-6.003-7.576-11.32-13.006-15.376-.975-.729-1.636-1.681-1.863-2.688-4.547-20.089-20.608-35.284-40.912-38.709-1.329-.226-2.526-1.129-3.281-2.473-10.052-17.926-29.042-29.062-49.561-29.062-21.685 0-41.113 12.109-50.722 31.225-7.966.999-15.571 3.876-22.229 8.438-3.417 2.342-4.288 7.01-1.946 10.427 2.342 3.416 7.01 4.29 10.426 1.946 5.604-3.841 12.167-5.981 18.979-6.19 2.972-.091 5.61-1.929 6.724-4.687 6.423-15.89 21.64-26.159 38.768-26.159 15.099 0 29.077 8.199 36.481 21.404 2.988 5.318 8.038 8.935 13.861 9.921 14.286 2.41 25.583 13.099 28.781 27.225 1.011 4.485 3.681 8.534 7.518 11.399 3.607 2.695 6.594 6.224 8.635 10.204 1.722 3.358 2.748 6.942 3.087 10.68-3.266 3.291-6.071 7.09-8.286 11.321-12.957 1.902-24.173 9.829-30.509 20.896h-119.065c-6.117-10.858-16.85-18.596-29.595-20.743-.628-.107-1.213-.566-1.594-1.241-2.113-3.772-4.708-7.176-7.677-10.163.875-9.562 6.389-18.21 14.853-22.993 2.025-1.144 3.405-3.163 3.735-5.465l.027-.212c.683-3.948-1.873-7.765-5.827-8.607-2.717-.578-5.401.391-7.137 2.313-9.383 5.91-16.112 15.077-19.081 25.531-6.144-2.882-12.922-4.47-19.927-4.47-17.7 0-33.579 9.732-41.644 25.154-17.333 2.543-31.553 15.86-35.142 33.055-9.776 6.916-15.714 18.226-15.714 30.331 0 9.915 3.861 19.244 10.883 26.279.94.938 1.936 1.799 2.957 2.624-9 6.361-15.593 15.992-17.89 27.18-10.317 7.235-16.59 19.131-16.59 31.867 0 10.393 4.044 20.16 11.387 27.504 2.883 2.883 6.144 5.249 9.666 7.069-7.38 6.533-12.698 15.379-14.712 25.414-10.868 7.55-17.481 20.024-17.481 33.383 0 10.863 4.23 21.069 11.902 28.729 7.669 7.681 17.875 11.911 28.738 11.911h20.31c4.142 0 7.5-3.357 7.5-7.5s-3.358-7.5-7.5-7.5h-20.31c-6.852 0-13.288-2.667-18.131-7.518-4.842-4.834-7.509-11.27-7.509-18.122 0-9.219 4.998-17.771 13.042-22.322 2.083-1.179 3.479-3.28 3.757-5.657 1.775-15.184 14.655-26.986 29.96-27.455 2.974-.091 5.613-1.931 6.726-4.69 5.626-13.944 18.978-22.955 34.015-22.955 13.25 0 25.519 7.196 32.012 18.767 2.781 4.978 7.507 8.366 12.984 9.3 12.295 2.067 22.406 11.635 25.154 23.789.938 4.196 3.438 7.99 7.039 10.681 3.132 2.342 5.729 5.412 7.505 8.871 1.862 3.636 2.806 7.563 2.806 11.673 0 8.115-3.794 15.357-9.697 20.059-13.434-7.931-27.195-15.277-40.164-21.595l-13.775-37.878c-1.416-3.894-5.721-5.901-9.611-4.485-3.893 1.416-5.901 5.72-4.485 9.612l8.691 23.899c-12.863-5.582-24.117-9.688-32.324-11.746-4.012-1.012-8.091 1.432-9.099 5.45-1.007 4.018 1.433 8.092 5.451 9.099 14.31 3.589 44.159 16.321 74.806 33.226h-63.843c-4.142 0-7.5 3.357-7.5 7.5s3.358 7.5 7.5 7.5h68.41c5.594 0 10.927-1.136 15.782-3.19 15.832 9.68 30.985 20.199 43.358 30.848v25.413c0 11.635-6.273 22.447-16.371 28.218l-1.956 1.117c-5.796 3.308-8.541 9.862-6.831 16.311 1.71 6.45 7.344 10.784 14.017 10.784h87.28c6.673 0 12.307-4.334 14.017-10.784 1.71-6.448-1.035-13.003-6.826-16.308l-1.96-1.12c-10.098-5.771-16.371-16.583-16.371-28.218v-25.413c12.373-10.648 27.526-21.168 43.358-30.848 4.855 2.053 10.188 3.19 15.782 3.19h123.721c22.409 0 40.64-18.23 40.64-40.64 0-12.751-6.106-24.924-16.333-32.564zm-26.227-90.316c.909 4.073 3.328 7.751 6.812 10.355 2.918 2.18 5.336 5.04 6.995 8.274 1.734 3.381 2.613 7.041 2.613 10.877 0 13.173-10.717 23.89-23.89 23.89-2.445-.081-5.974.478-7.372-2.157-9.144-16.312-26.424-26.443-45.098-26.443-19.592 0-37.162 10.865-45.967 28.047-1.066.146-2.12.335-3.164.554h-15.609c-4.987 0-9.736-1.521-13.726-4.332 25.224-19.205 52.31-36.228 74.616-44.184 3.901-1.392 5.936-5.683 4.544-9.584s-5.684-5.936-9.583-4.545c-24.703 8.811-53.011 26.765-78.552 46.238-.784-2.384-1.198-4.901-1.198-7.483 0-8.594 4.658-16.568 12.155-20.813 2.081-1.178 3.476-3.277 3.754-5.652 1.664-14.187 13.708-25.222 28.015-25.668 2.971-.093 5.607-1.931 6.72-4.688 5.275-13.06 17.779-21.499 31.856-21.499 12.419 0 23.91 6.738 29.986 17.585 2.698 4.817 7.277 8.098 12.577 9.001 11.495 1.938 20.948 10.879 23.516 22.227zm-159.629 46.607c-7.524 6.078-14.692 12.182-21.311 18.091v-64.482c8.052-9.174 16.653-18.042 25.462-26.384 5.305 3.038 11.303 4.708 17.559 4.848-4.425 5.406-7.61 11.869-9.063 18.961-10.323 7.237-16.598 19.133-16.598 31.866 0 6.027 1.371 11.841 3.951 17.1zm11.681-124.331c2.083-1.178 3.479-3.279 3.757-5.657 1.544-13.202 12.74-23.466 26.042-23.875 2.972-.091 5.609-1.93 6.723-4.686 4.92-12.175 16.58-20.041 29.706-20.041 11.572 0 22.285 6.284 27.967 16.413 2.619 4.646 7.044 7.811 12.158 8.683 10.861 1.829 19.449 9.953 21.876 20.681.884 3.953 3.229 7.512 6.595 10.016 2.7 2.014 4.946 4.67 6.486 7.661 1.605 3.141 2.418 6.534 2.418 10.087 0 10.175-6.948 18.986-16.687 21.446-.034-.006-.068-.013-.103-.019-.796-.136-1.524-.697-1.998-1.543-8.727-15.577-25.232-25.254-43.073-25.254-18.642 0-35.363 10.299-43.799 26.604-1.561.221-3.096.532-4.605.916h-22.585c-2.165 0-4.281-.315-6.301-.912 18.675-16.378 37.53-30.04 53.319-39.019 3.601-2.048 4.859-6.627 2.812-10.228-2.047-3.6-6.626-4.858-10.227-2.812-17.184 9.772-37.844 24.855-58.145 42.929-2.343-3.572-3.608-7.743-3.608-12.11 0-7.96 4.319-15.349 11.272-19.28zm-14.082-8.209c-7.66 6.963-12.19 16.923-12.19 27.49 0 8.176 2.631 15.948 7.484 22.359-14.023 13.361-27.526 27.976-39.194 43.054l-.044-61.771 18.117-31.133h25.827zm-43.182 0-8.228 14.138-8.228-14.138zm-33.811 0 18.049 31.014.044 61.915c-11.676-15.092-25.191-29.719-39.225-43.091 4.702-6.223 7.495-13.965 7.495-22.347 0-5.879-1.41-11.731-4.075-16.92-2.032-3.967-4.806-7.56-8.117-10.57h25.829zm-6.917 86.149v64.482c-6.623-5.913-13.796-12.021-21.326-18.103 2.536-5.161 3.966-10.96 3.966-17.088 0-6.15-1.475-12.278-4.267-17.723-2.692-5.249-6.626-9.899-11.373-13.444-.613-.458-1.022-1.029-1.156-1.629-1.531-6.766-4.567-12.891-8.73-18.037 6.318-.167 12.248-1.906 17.406-4.859 8.815 8.348 17.423 17.221 25.48 26.401zm-165.458-77.94c2.083-1.178 3.479-3.28 3.757-5.657 1.544-13.202 12.744-23.466 26.051-23.875 2.974-.091 5.612-1.931 6.725-4.69 4.911-12.172 16.571-20.037 29.705-20.037 11.574 0 22.283 6.282 27.957 16.413 2.62 4.648 7.051 7.812 12.167 8.683 10.688 1.801 19.478 10.119 21.874 20.712.903 3.959 3.255 7.512 6.598 9.984 2.701 2.015 4.941 4.666 6.483 7.675 1.606 3.128 2.421 6.518 2.421 10.073 0 4.465-1.332 8.623-3.614 12.105-20.299-18.071-40.956-33.152-58.138-42.924-3.6-2.05-8.179-.789-10.227 2.812-2.047 3.601-.789 8.18 2.812 10.228 15.787 8.978 34.639 22.638 53.313 39.014-1.997.593-4.109.917-6.295.917h-22.486c-1.886-.68-4.313-.186-5.441-2.267-8.727-15.577-25.228-25.254-43.063-25.254-18.648 0-35.373 10.299-43.81 26.604-.46.065-.916.143-1.371.222-3.839-.967-7.346-2.947-10.191-5.785-4.185-4.192-6.489-9.758-6.489-15.672 0-7.965 4.315-15.352 11.262-19.281zm109.198 131.121h-15.516c-.571-.118-1.146-.226-1.724-.323-.964-.164-1.836-.829-2.399-1.837-9.152-16.309-26.433-26.439-45.101-26.439-19.6 0-37.168 10.866-45.966 28.05-1.866.382-4.574.683-6.504.55-6.387 0-12.387-2.483-16.896-6.992-4.51-4.511-6.994-10.512-6.994-16.897 0-8.597 4.654-16.572 12.145-20.813 2.08-1.177 3.474-3.275 3.753-5.648 1.672-14.189 13.716-25.226 28.016-25.672 2.971-.093 5.607-1.931 6.72-4.688 5.275-13.06 17.783-21.499 31.866-21.499 12.413 0 23.9 6.738 29.986 17.603 2.71 4.81 7.286 8.083 12.567 8.983 11.496 1.938 20.948 10.879 23.517 22.228.909 4.073 3.327 7.75 6.812 10.355 2.928 2.187 5.35 5.048 7.004 8.273 1.734 3.383 2.614 7.042 2.614 10.878 0 2.611-.427 5.124-1.206 7.477-25.54-19.471-53.845-37.422-78.545-46.232-3.899-1.388-8.191.645-9.583 4.545-1.392 3.901.643 8.192 4.544 9.584 22.302 7.955 49.383 24.973 74.603 44.174-3.884 2.73-8.613 4.34-13.713 4.34zm26.362 97.66c7.049-7.312 11.398-17.245 11.398-28.18 0-6.51-1.499-12.737-4.458-18.517-2.816-5.484-6.921-10.34-11.873-14.042-.733-.548-1.223-1.236-1.384-1.956-1.821-8.053-5.671-15.241-10.983-21.034 6.326-1.517 12.055-4.584 16.765-8.774 10.933 8.825 21.273 17.86 30.433 26.498v86.782c-9.101-7.054-19.267-14.059-29.898-20.777zm87.398-14.34c-4.142 0-7.5 3.357-7.5 7.5v72.37c0 17.004 9.169 32.807 23.929 41.241l.33.188-83.515-.001.328-.188c14.76-8.435 23.929-24.237 23.929-41.241v-198.024c3.995 5.284 7.748 10.621 11.193 15.975 2.733 4.515 9.881 4.514 12.613 0 3.446-5.353 7.198-10.69 11.193-15.975v90.655c0 4.143 3.358 7.5 7.5 7.5s7.5-3.357 7.5-7.5v-24.164c9.155-8.634 19.489-17.663 30.416-26.485 4.871 4.342 10.66 7.338 16.912 8.802-5.625 6.089-9.654 13.686-11.351 22.122-10.865 7.55-17.477 20.026-17.477 33.385 0 10.935 4.349 20.867 11.398 28.18-10.631 6.718-20.797 13.723-29.898 20.778v-27.618c0-4.142-3.358-7.5-7.5-7.5zm190.36 11.8h-119.152c30.648-16.905 60.497-29.637 74.806-33.226 4.018-1.007 6.458-5.081 5.451-9.099s-5.082-6.467-9.099-5.45c-8.207 2.058-19.461 6.164-32.324 11.746l8.691-23.899c1.416-3.893-.592-8.196-4.485-9.612-3.894-1.416-8.196.594-9.611 4.485l-13.775 37.878c-12.969 6.318-26.73 13.664-40.164 21.595-5.903-4.701-9.697-11.943-9.697-20.059 0-9.22 4.997-17.774 13.04-22.326 2.081-1.178 3.476-3.278 3.754-5.653 1.782-15.184 14.663-26.988 29.962-27.459 2.972-.091 5.609-1.93 6.723-4.687 5.635-13.945 18.989-22.956 34.021-22.956 13.254 0 25.521 7.195 32.014 18.778 2.794 4.982 7.523 8.366 12.976 9.284 12.492 2.105 22.369 11.451 25.163 23.811.948 4.194 3.446 7.98 7.034 10.663 6.553 4.897 10.312 12.385 10.312 20.546 0 14.138-11.502 25.64-25.64 25.64z"/></g></g></svg>