<svg id="Icons" height="512" viewBox="0 0 60 60" width="512" xmlns="http://www.w3.org/2000/svg"><path d="m27.96 10.04c-.35-4.17-2.96-5.04-2.96-5.04 3-4 9-4 9-4a21.491 21.491 0 0 1 -1.9 9.05z" fill="#805333"/><path d="m52 27a6.991 6.991 0 0 1 -2.99 4.04h-38.02a6.991 6.991 0 0 1 -2.99-4.04c-2.642-12.024 9.511-17 22-17 12.6 0 24.578 5.267 22 17z" fill="#a56a43"/><path d="m51.96 21.14a22.67 22.67 0 0 0 -3.92.68 19.072 19.072 0 0 0 -.48-3.34 20.063 20.063 0 0 1 2.5-.44c.18-.02.37-.03.55-.04a12.379 12.379 0 0 0 -1.43-1.87c-.74.11-1.46.26-2.17.43a20.1 20.1 0 0 0 -1.41-3.2 20.7 20.7 0 0 0 -3.94-1.73 36.971 36.971 0 0 0 -3.52 2.41 31.612 31.612 0 0 0 -2.56-3.48 2.433 2.433 0 0 1 .25-.2c-1.07-.15-2.2-.24-3.38-.3l.32.35a29.9 29.9 0 0 0 -2.77 3.12 30.818 30.818 0 0 0 -2.77-3.12l.32-.35c-1.18.06-2.31.15-3.39.3.09.07.18.14.26.21a30.469 30.469 0 0 0 -2.56 3.47 36.971 36.971 0 0 0 -3.52-2.41 20.7 20.7 0 0 0 -3.94 1.73 20.1 20.1 0 0 0 -1.41 3.2c-.71-.17-1.43-.32-2.17-.43a11.9 11.9 0 0 0 -1.43 1.87 5.085 5.085 0 0 1 .55.04 20.063 20.063 0 0 1 2.5.44 19.072 19.072 0 0 0 -.48 3.34 22.839 22.839 0 0 0 -3.92-.68 11.024 11.024 0 0 0 -.33 1.99h.04a20.329 20.329 0 0 1 4.25.79 18.649 18.649 0 0 0 .9 4.6c.17.51.37 1.02.57 1.5l1.84-.79q-.285-.66-.51-1.35a16.6 16.6 0 0 1 -.72-3.16 9 9 0 0 1 3.31 2.52 6.256 6.256 0 0 1 .83 1.47l1.86-.73a.01.01 0 0 0 -.01-.01l.06-.01a13.652 13.652 0 0 1 -.12-1.57 16.15 16.15 0 0 1 .36-3.75 18.551 18.551 0 0 1 2.91 3.37c.07.11.13.23.19.34-.1.32-.21.64-.31.97l1.92.56c.11-.36.23-.72.35-1.08l.48-.25c-.08-.15-.17-.3-.26-.45.05-.13.09-.27.13-.41.41-1.18.88-2.31 1.37-3.4a26.556 26.556 0 0 1 1.72 2.65 24.877 24.877 0 0 0 -1.41 3.23l1.89.66c.19-.55.41-1.1.65-1.64.27.63.53 1.26.75 1.91l1.89-.64c-.26-.78-.57-1.56-.91-2.32-.18-.41-.39-.81-.6-1.2a26.556 26.556 0 0 1 1.72-2.65c.49 1.09.96 2.22 1.37 3.4.04.13.08.27.12.4a17.213 17.213 0 0 0 -.8 1.61l1.51.66a1.424 1.424 0 0 0 .05.16l.19-.06.08.04a.488.488 0 0 0 .03-.07l1.63-.45c-.16-.55-.34-1.08-.51-1.63.07-.11.13-.23.2-.34a18.551 18.551 0 0 1 2.91-3.37 16.15 16.15 0 0 1 .36 3.75 15.221 15.221 0 0 1 -.18 1.92 7.475 7.475 0 0 0 -.28 1.03l1.96.38c.05-.22.1-.43.16-.64l.06.02c.02-.1.03-.2.04-.29a6.009 6.009 0 0 1 .86-1.57 9 9 0 0 1 3.31-2.52 16.6 16.6 0 0 1 -.72 3.16 17.32 17.32 0 0 1 -1.16 2.69l.89.47.88.47c.08-.16.16-.31.24-.47a19.134 19.134 0 0 0 1.05-2.52 18.649 18.649 0 0 0 .9-4.6 20.207 20.207 0 0 1 4.25-.79h.04a11.024 11.024 0 0 0 -.33-1.99zm-33.93 3.85a12.526 12.526 0 0 0 -4.07-2.5 16.089 16.089 0 0 1 .4-3.45 17.4 17.4 0 0 1 4.28 2.22 20.705 20.705 0 0 0 -.61 3.73zm1.22-5.74a19.019 19.019 0 0 0 -4.34-2.13 19.071 19.071 0 0 1 1.97-4.04 37.242 37.242 0 0 1 3.96 2.7 26.736 26.736 0 0 0 -1.59 3.47zm5.04 4.74a20.006 20.006 0 0 0 -3.34-3.49 22.211 22.211 0 0 1 1.45-3.41 33.917 33.917 0 0 1 3.36 3.43c-.53 1.11-1.02 2.27-1.47 3.47zm2.46-5.39a34.536 34.536 0 0 0 -3.34-3.28 31.394 31.394 0 0 1 2.49-3.41 27.57 27.57 0 0 1 2.88 3.33 36.537 36.537 0 0 0 -2.03 3.36zm3.25 4.33a31.483 31.483 0 0 0 -1.88-2.67 34.433 34.433 0 0 1 1.88-3.23 34.433 34.433 0 0 1 1.88 3.23 31.483 31.483 0 0 0 -1.88 2.67zm3.25-4.33a36.537 36.537 0 0 0 -2.03-3.36 28.678 28.678 0 0 1 2.87-3.33 30.068 30.068 0 0 1 2.5 3.41 34.536 34.536 0 0 0 -3.34 3.28zm2.46 5.39c-.45-1.2-.94-2.36-1.47-3.47a32.884 32.884 0 0 1 3.36-3.43 23.081 23.081 0 0 1 1.45 3.41 20.363 20.363 0 0 0 -3.34 3.49zm3.45-8.21a36.251 36.251 0 0 1 3.96-2.7 19.071 19.071 0 0 1 1.97 4.04 19.44 19.44 0 0 0 -4.34 2.13 26.031 26.031 0 0 0 -1.59-3.47zm2.81 9.21a20.705 20.705 0 0 0 -.61-3.73 17.566 17.566 0 0 1 4.28-2.22 16.163 16.163 0 0 1 .4 3.45 12.416 12.416 0 0 0 -4.07 2.5z" fill="#805333"/><path d="m30 59c21-8 20-23 19-28-.784-3.922-13-6-19-6s-18.216 2.078-19 6c-1 5-2 20 19 28z" fill="#cb8252"/><path d="m30 55.69a.98.98 0 0 1 -.387-.078c-8.486-3.557-13.677-8.724-15.429-15.356a1 1 0 1 1 1.933-.512c1.585 6 6.386 10.719 14.27 14.025a1 1 0 0 1 -.387 1.921z" fill="#cf976a"/></svg>