<svg id="Capa_1" enable-background="new 0 0 512 512" height="512" viewBox="0 0 512 512" width="512" xmlns="http://www.w3.org/2000/svg"><g><g><path d="m431.395 254.52c9.08 10.1 14.62 23.46 14.62 38.11 0 30.4-23.79 55.23-53.76 56.92.17 1.56.27 3.14.27 4.74 0 23.34-18.92 42.26-42.25 42.26-7.77 0-15.04-2.11-21.29-5.76-5.77 13.63-72.98 6.18-72.98-14.8 0 20.98-17.01 37.99-37.99 37.99-15.73 0-29.23-9.56-35-23.19-6.25 3.65-13.52 5.76-21.28 5.76-23.34 0-42.26-18.92-42.26-42.26 0-1.6.1-3.18.27-4.74-29.97-1.69-53.75-26.52-53.75-56.92 0-14.65 5.53-28.01 14.61-38.11-18.29-4.64-31.82-21.22-31.82-40.95 0-19.37 13.03-35.67 30.8-40.67-8.47-9.95-13.59-22.84-13.59-36.93 0-31.49 25.52-57.02 57.01-57.02 5.84 0 11.48.88 16.78 2.52-1.3-4.08-2.01-8.41-2.01-12.92 0-23.33 18.91-42.25 42.25-42.25 10.13 0 19.43 3.57 26.71 9.52 9.89-16.93 28.24-28.32 49.27-28.32 21.02 0 39.37 11.39 49.26 28.32 7.28-5.95 16.58-9.52 26.71-9.52 23.34 0 42.26 18.92 42.26 42.25 0 4.51-.72 8.84-2.02 12.92 5.3-1.64 10.94-2.52 16.78-2.52 31.49 0 57.02 25.53 57.02 57.02 0 14.09-5.13 26.98-13.6 36.93 17.77 5 30.8 21.3 30.8 40.67 0 19.73-13.53 36.31-31.82 40.95z" fill="#3ec3a4"/><path d="m246.645 400.95c-6.96 7.99-17.2 13.03-28.63 13.03-15.73 0-29.23-9.56-35-23.19-6.25 3.65-13.52 5.76-21.28 5.76-23.34 0-42.26-18.92-42.26-42.26 0-1.6.1-3.18.27-4.74-29.97-1.69-53.75-26.52-53.75-56.92 0-14.65 5.53-28.01 14.61-38.11-18.29-4.64-31.82-21.22-31.82-40.95 0-19.37 13.03-35.67 30.8-40.67-8.47-9.95-13.59-22.84-13.59-36.93 0-31.49 25.52-57.02 57.01-57.02 5.84 0 11.48.88 16.78 2.52-1.3-4.08-2.01-8.41-2.01-12.92 0-23.33 18.91-42.25 42.25-42.25 10.13 0 19.43 3.57 26.71 9.52 5.84-10 14.63-18.06 25.18-22.98-6.66 8.01-10.67 18.29-10.67 29.53 0 4.93.78 9.66 2.2 14.12-5.8-1.79-11.96-2.75-18.35-2.75-34.42 0-62.32 27.91-62.32 62.34 0 15.4 5.59 29.49 14.85 40.37-19.42 5.47-33.67 23.29-33.67 44.46 0 21.57 14.79 39.7 34.79 44.77-9.93 11.05-15.97 25.65-15.97 41.67 0 33.23 25.99 60.38 58.76 62.23-.19 1.7-.3 3.43-.3 5.18 0 25.26 20.26 45.77 45.41 46.19z" fill="#0bb494"/><path d="m326.04 489.3c3.2 4.28 5.05 9.58 5.05 15.2h-150.18c0-11.25 7.4-21.16 18.18-24.36l1.5-.44c5.25-1.56 9.71-4.72 12.89-8.85 3.19-4.13 5.1-9.25 5.28-14.72.48-15.19-4.1-30.11-13-42.42l-40.03-55.34c2.91-.57 5.79-1.55 8.56-2.96 5.14-2.61 9.31-6.38 12.34-10.84 1.19-1.74 2.2-3.58 3.03-5.5l31.68 35.11.98-31.18c3.7 2.03 7.95 3.19 12.47 3.19 8.76 0 16.52-4.35 21.21-11.01 4.69 6.66 12.45 11.01 21.21 11.01 4.52 0 8.77-1.16 12.47-3.19l.98 31.18 31.68-35.11c.83 1.92 1.84 3.76 3.03 5.5 3.03 4.46 7.2 8.23 12.34 10.84 2.77 1.41 5.65 2.39 8.56 2.96l-40.03 55.34c-8.48 11.72-13.03 25.82-13.03 40.25 0 .72.01 1.45.03 2.17.35 10.95 7.67 20.45 18.17 23.57l1.5.44c5.39 1.6 9.93 4.88 13.13 9.16z" fill="#bc7c63"/><path d="m239.62 346.19c3.91 12.31.21 94.75 0 109.94-.08 5.47-.92 10.59-2.33 14.72-1.4 4.13-3.36 7.29-5.67 8.85l-.66.44c-4.74 3.2-8 13.11-8 24.36h-42.05c0-11.25 7.4-21.16 18.18-24.36l1.5-.44c5.25-1.56 9.71-4.72 12.89-8.85 3.19-4.13 5.1-9.25 5.28-14.72.48-15.19-4.1-30.11-13-42.42l-40.03-55.34c2.91-.57 5.79-1.55 8.56-2.96 5.14-2.61 9.31-6.38 12.34-10.84 1.19-1.74 2.2-3.58 3.03-5.5l31.68 35.11.98-31.18c3.7 2.03 7.95 3.19 12.47 3.19 1.52 0 3.01-.13 4.46-.39z" fill="#ab695d"/><g><circle cx="152.79" cy="279.274" fill="#bc7c63" r="25.694"/></g><g><circle cx="359.954" cy="221.221" fill="#bc7c63" r="25.694"/></g><g><circle cx="229.262" cy="129.345" fill="#bc7c63" r="25.694"/></g></g><g><path d="m470.71 213.57c0-18.67-10.561-35.574-26.631-44.044 6.13-10.058 9.431-21.67 9.431-33.555 0-35.576-28.943-64.52-64.52-64.52-2.474 0-4.934.14-7.372.418.074-1.104.111-2.21.111-3.318 0-19.652-11.613-37.506-29.587-45.485-3.785-1.68-8.217.025-9.898 3.812-1.681 3.786.026 8.218 3.812 9.898 12.558 5.575 20.673 18.047 20.673 31.775 0 3.592-.561 7.173-1.666 10.643-.848 2.662-.146 5.574 1.821 7.558s4.875 2.71 7.542 1.884c4.686-1.45 9.585-2.185 14.563-2.185 27.305 0 49.52 22.215 49.52 49.52 0 11.733-4.194 23.121-11.811 32.069-1.657 1.946-2.208 4.602-1.464 7.046s2.683 4.342 5.144 5.035c14.915 4.196 25.331 17.952 25.331 33.45 0 15.922-10.759 29.772-26.164 33.681-2.546.646-4.569 2.577-5.333 5.091s-.155 5.243 1.602 7.196c8.186 9.096 12.694 20.849 12.694 33.093 0 26.243-20.505 47.956-46.682 49.432-2.054.116-3.97 1.07-5.3 2.64-1.33 1.569-1.957 3.616-1.734 5.661.152 1.396.226 2.681.226 3.928 0 19.167-15.589 34.76-34.75 34.76-5.052 0-10.033-1.122-14.594-3.235l14.058-19.436c3.677.284 7.333.031 10.978-.711 4.059-.83 6.676-4.792 5.847-8.85-.83-4.058-4.793-6.677-8.85-5.847-5.625 1.16-11.485.363-16.603-2.249-3.843-1.952-7.139-4.845-9.545-8.388-2.207-3.229-3.667-6.996-4.201-10.894-.568-4.103-4.357-6.971-8.458-6.401-4.103.568-6.969 4.354-6.401 8.458.276 1.992.711 3.95 1.274 5.868l-16.204 17.959-.263-8.353c8.313-6.266 13.332-16.147 13.332-26.703 0-4.142-3.358-7.5-7.5-7.5s-7.5 3.358-7.5 7.5c0 6.597-3.557 12.719-9.289 16-2.771 1.579-5.938 2.421-9.142 2.42-5.989 0-11.626-2.926-15.078-7.828-1.405-1.995-3.692-3.182-6.132-3.182s-4.727 1.187-6.132 3.182c-3.452 4.902-9.089 7.828-15.078 7.828-3.204.001-6.372-.841-9.143-2.421-5.73-3.281-9.287-9.403-9.287-15.999 0-4.142-3.358-7.5-7.5-7.5s-7.5 3.358-7.5 7.5c0 10.555 5.018 20.437 13.332 26.703l-.263 8.353-16.204-17.959c.564-1.918.999-3.877 1.274-5.868.568-4.103-2.298-7.89-6.401-8.458-4.114-.572-7.89 2.298-8.458 6.401-.539 3.909-1.988 7.657-4.215 10.914-2.393 3.522-5.689 6.416-9.538 8.371-5.104 2.604-10.97 3.408-16.597 2.246-4.054-.829-8.021 1.788-8.85 5.847-.829 4.058 1.788 8.02 5.847 8.85 3.647.742 7.301.995 10.979.711l14.056 19.432c-4.563 2.116-9.544 3.239-14.593 3.239-19.161 0-34.75-15.593-34.75-34.76 0-1.293.073-2.614.216-3.926.223-2.044-.402-4.091-1.731-5.66-1.329-1.57-3.244-2.525-5.297-2.642-6.401-.366-12.57-1.932-18.336-4.654-3.743-1.769-8.215-.166-9.984 3.58s-.166 8.215 3.58 9.984c5.297 2.501 10.853 4.253 16.589 5.237 1.012 26.551 22.924 47.841 49.713 47.841 8.201 0 16.277-2.063 23.493-5.935l14.46 19.99c7.894 10.918 12.007 24.338 11.582 37.779-.125 3.803-1.411 7.393-3.726 10.391-2.311 3-5.452 5.157-9.059 6.229l-1.523.447c-13.863 4.115-23.545 17.089-23.545 31.55 0 4.142 3.358 7.5 7.5 7.5h150.18c4.142 0 7.5-3.358 7.5-7.5 0-7.157-2.263-13.966-6.543-19.691-4.282-5.727-10.161-9.828-17.025-11.865l-1.475-.433c-7.415-2.203-12.563-8.882-12.809-16.589-.018-.65-.027-1.311-.027-1.961 0-7.596 1.397-15.055 4.154-22.171 1.496-3.862-.422-8.207-4.285-9.703-3.862-1.498-8.206.423-9.703 4.285-3.428 8.851-5.167 18.133-5.167 27.589 0 .79.011 1.589.034 2.409.454 14.208 9.909 26.473 23.555 30.528l1.476.433c3.723 1.105 6.924 3.339 9.258 6.461.757 1.012 1.397 2.086 1.917 3.209h-131.871c2.125-4.566 6.127-8.18 11.124-9.663l1.525-.447c6.675-1.984 12.449-5.948 16.689-11.455 4.246-5.497 6.611-12.087 6.84-19.067.53-16.749-4.591-33.459-14.419-47.053l-34.153-47.216c.001 0 .002-.001.003-.001 5.078-2.578 9.546-6.214 13.098-10.586l24.988 27.693c1.449 1.606 3.485 2.476 5.57 2.476.864 0 1.737-.15 2.58-.458 2.874-1.053 4.819-3.747 4.915-6.806l.665-21.164c1.746.28 3.514.438 5.289.438 7.814 0 15.296-2.745 21.21-7.594 5.914 4.849 13.396 7.594 21.21 7.594 1.775 0 3.543-.158 5.289-.438l.665 21.164c.096 3.059 2.042 5.753 4.915 6.806 2.838 1.048 6.094.267 8.149-2.018l24.988-27.694c3.558 4.378 8.023 8.01 13.091 10.584.003.001.006.003.009.004l-23.894 33.036c-2.427 3.356-1.674 8.045 1.682 10.473 1.329.961 2.866 1.423 4.389 1.423 2.325 0 4.617-1.078 6.083-3.105l4.199-5.806c7.213 3.869 15.289 5.93 23.494 5.93 26.789 0 48.701-21.29 49.713-47.841 30.546-5.235 53.526-31.869 53.526-63.579 0-12.371-3.532-24.357-10.091-34.644 16.479-8.316 27.292-25.328 27.292-44.421z"/><path d="m82.444 247.25c-15.399-3.907-26.154-17.757-26.154-33.681 0-15.5 10.413-29.255 25.321-33.45 2.46-.692 4.399-2.59 5.144-5.035s.193-5.101-1.464-7.047c-7.61-8.939-11.801-20.328-11.801-32.068 0-27.305 22.21-49.52 49.51-49.52 4.976 0 9.88.736 14.577 2.186 2.671.825 5.58.095 7.546-1.892 1.966-1.988 2.663-4.905 1.808-7.567-1.103-3.432-1.661-7.008-1.661-10.627 0-19.161 15.589-34.75 34.75-34.75 7.988 0 15.788 2.78 21.964 7.827 1.697 1.388 3.917 1.962 6.077 1.574 2.159-.389 4.039-1.704 5.145-3.598 8.865-15.175 25.263-24.602 42.794-24.602 17.525 0 33.919 9.427 42.784 24.603 1.107 1.896 2.991 3.212 5.152 3.599 2.164.387 4.384-.192 6.082-1.584 2.387-1.959 5.034-3.586 7.868-4.836 3.79-1.671 5.508-6.098 3.836-9.888s-6.101-5.508-9.888-3.836c-1.567.691-3.095 1.462-4.577 2.31-12.121-15.816-31.114-25.368-51.257-25.368-20.152 0-39.15 9.554-51.273 25.375-7.479-4.276-16.017-6.575-24.707-6.575-27.432 0-49.75 22.318-49.75 49.75 0 1.11.037 2.217.11 3.319-2.441-.279-4.904-.419-7.38-.419-35.571 0-64.51 28.944-64.51 64.52 0 11.89 3.298 23.502 9.422 33.555-16.066 8.47-26.623 25.373-26.623 44.044 0 19.094 10.811 36.107 27.286 44.417-6.556 10.289-10.086 22.275-10.086 34.643 0 10.966 2.806 21.809 8.115 31.355 1.372 2.466 3.927 3.856 6.562 3.856 1.233 0 2.484-.305 3.638-.947 3.62-2.013 4.923-6.58 2.91-10.2-4.072-7.322-6.225-15.644-6.225-24.065 0-12.241 4.506-23.995 12.688-33.096 1.756-1.953 2.362-4.682 1.598-7.195s-2.785-4.441-5.331-5.087z"/><path d="m141.446 315.831c.74.229 1.489.339 2.225.339 2.674 0 5.167-1.455 6.501-3.806.868.069 1.735.108 2.598.108 14.16 0 27.311-9.142 31.723-23.359 2.628-8.468 1.801-17.453-2.329-25.299-2.967-5.637-7.389-10.194-12.782-13.292.298-3.438-1.817-6.74-5.247-7.804-3.431-1.064-7.043.46-8.743 3.463-6.199-.499-12.424.753-18.061 3.719-7.846 4.13-13.614 11.068-16.242 19.536s-1.801 17.453 2.329 25.299c2.967 5.637 7.389 10.194 12.782 13.292-.3 3.437 1.815 6.739 5.246 7.804zm28.721-31.165c-2.18 7.026-8.259 11.775-15.121 12.644l9.817-31.635c1.616 1.437 2.99 3.154 4.027 5.124 2.264 4.301 2.717 9.226 1.277 13.867zm-34.753-10.785c1.44-4.642 4.602-8.444 8.902-10.708 1.973-1.039 4.078-1.695 6.227-1.963l-9.826 31.662c-1.617-1.437-2.99-3.154-4.027-5.124-2.264-4.301-2.717-9.225-1.276-13.867z"/><path d="m360.01 254.41c3.123 0 6.267-.457 9.342-1.366 1.442 1.635 3.499 2.548 5.617 2.548 1.238 0 2.493-.307 3.651-.954 3.136-1.752 4.521-5.42 3.518-8.722 4.634-4.147 8.018-9.52 9.754-15.65 2.416-8.531 1.365-17.492-2.958-25.233-7.698-13.78-23.826-19.934-38.368-15.644-2.284-2.591-6.138-3.338-9.278-1.584-3.136 1.752-4.521 5.42-3.518 8.722-4.634 4.147-8.018 9.52-9.754 15.65-2.416 8.531-1.365 17.492 2.958 25.233 6.073 10.869 17.39 17 29.036 17zm-5.013-15.683c-4.676-1.324-8.556-4.39-10.926-8.633-3.588-6.422-2.839-14.098 1.261-19.67l16.153 28.917c-2.155.181-4.346-.007-6.488-.614zm4.926-35.697c6.384 0 12.587 3.36 15.915 9.318 2.37 4.243 2.946 9.154 1.622 13.831-.607 2.143-1.595 4.107-2.879 5.847l-16.158-28.926c.5-.041 1.001-.07 1.5-.07z"/><path d="m217.187 165.667c.786.261 1.583.385 2.367.385 2.621 0 5.077-1.398 6.432-3.683 1.102.111 2.206.187 3.309.187 5.091 0 10.151-1.186 14.836-3.533 7.928-3.971 13.833-10.792 16.631-19.206 2.796-8.413 2.15-17.413-1.821-25.34-2.854-5.696-7.184-10.34-12.513-13.545.367-3.431-1.681-6.775-5.09-7.908-3.415-1.136-7.059.321-8.817 3.294-15.089-1.49-29.778 7.577-34.758 22.556s1.358 31.036 14.335 38.877c-.372 3.433 1.677 6.781 5.089 7.916zm29.339-30.583c-1.533 4.612-4.77 8.351-9.115 10.527-1.991.998-4.108 1.593-6.258 1.819l10.452-31.44c1.587 1.469 2.926 3.213 3.924 5.204 2.177 4.346 2.531 9.279.997 13.89zm-34.529-11.479c1.533-4.612 4.77-8.35 9.115-10.527 1.993-.999 4.11-1.609 6.263-1.834l-10.454 31.446c-5.071-4.704-7.245-12.104-4.924-19.085z"/></g></g></svg>